<svg width="627" height="425" viewBox="0 0 627 425" fill="none" xmlns="http://www.w3.org/2000/svg">
<path d="M625.84 20.2059L585.854 130.756C583.508 137.215 576.669 141.579 568.931 141.579H269.854C263.015 141.579 257.075 145.42 254.928 151.007C254.878 151.05 254.828 151.137 254.828 151.181V151.225L251.833 159.518V159.561C251.833 159.604 251.783 159.692 251.733 159.736L207.054 283.203L159.779 413.961C157.433 420.42 150.594 424.828 142.806 424.828H18.3026C6.27148 424.828 -2.26495 414.616 1.32927 404.577L45.2599 283.204L92.5351 152.447C94.8812 145.988 101.77 141.58 109.508 141.58H246.741C253.63 141.58 259.72 137.696 261.767 131.979L267.358 116.528C267.358 116.485 267.408 116.397 267.458 116.354L305.598 10.8234C307.944 4.36413 314.783 1.76477e-08 322.571 1.76477e-08H608.868C620.899 -0.000490197 629.485 10.2119 625.84 20.2059Z" fill="#3D3C1A" fill-opacity="0.5"/>
</svg>
