<svg xmlns="http://www.w3.org/2000/svg" width="136" height="40" viewBox="0 0 136 40" fill="none">
  <rect x="1" y="0.5" width="134" height="39" rx="6.5" stroke="white"/>
  <path d="M82.0267 19.2013V21.4924H80.5906V22.9948H82.0267V28.0998C82.0267 29.8429 82.8152 30.5402 84.7991 30.5402C85.1478 30.5402 85.4798 30.4987 85.7703 30.4489V28.9631C85.5213 28.988 85.3636 29.0046 85.0896 29.0046C84.2015 29.0046 83.8113 28.5895 83.8113 27.6432V22.9948H85.7703V21.4924H83.8113V19.2013H82.0267Z" fill="white"/>
  <path d="M90.8242 30.6647C93.4638 30.6647 95.0825 28.8967 95.0825 25.9665C95.0825 23.0529 93.4555 21.2765 90.8242 21.2765C88.1845 21.2765 86.5576 23.0529 86.5576 25.9665C86.5576 28.8967 88.1762 30.6647 90.8242 30.6647ZM90.8242 29.0793C89.2719 29.0793 88.4003 27.9421 88.4003 25.9665C88.4003 24.0075 89.2719 22.862 90.8242 22.862C92.3681 22.862 93.248 24.0075 93.248 25.9665C93.248 27.9338 92.3681 29.0793 90.8242 29.0793Z" fill="white"/>
  <path d="M96.4674 30.4904H98.252V25.153C98.252 23.883 99.2066 23.028 100.56 23.028C100.875 23.028 101.406 23.0861 101.556 23.1359V21.3762C101.365 21.3263 101.024 21.3014 100.759 21.3014C99.5802 21.3014 98.5758 21.9489 98.3184 22.8371H98.1856V21.4509H96.4674V30.4904Z" fill="white"/>
  <path d="M105.987 22.7956C107.307 22.7956 108.17 23.717 108.212 25.1364H103.646C103.746 23.7253 104.667 22.7956 105.987 22.7956ZM108.203 28.05C107.871 28.7555 107.133 29.1457 106.053 29.1457C104.626 29.1457 103.704 28.1413 103.646 26.5558V26.4562H110.03V25.8337C110.03 22.9948 108.51 21.2765 105.995 21.2765C103.447 21.2765 101.828 23.111 101.828 25.9997C101.828 28.8884 103.414 30.6647 106.004 30.6647C108.071 30.6647 109.515 29.6686 109.922 28.05H108.203Z" fill="white"/>
  <path d="M70.3231 27.1522C70.4607 29.372 72.3105 30.7915 75.0636 30.7915C78.006 30.7915 79.8472 29.3031 79.8472 26.9286C79.8472 25.0616 78.7975 24.0292 76.2509 23.4355L74.8829 23.1C73.2655 22.7214 72.6116 22.2138 72.6116 21.3277C72.6116 20.2092 73.6268 19.4779 75.1497 19.4779C76.595 19.4779 77.593 20.192 77.7737 21.3363H79.6493C79.5374 19.2456 77.6963 17.7744 75.1755 17.7744C72.4654 17.7744 70.6586 19.2456 70.6586 21.4567C70.6586 23.2807 71.6824 24.3647 73.9279 24.8895L75.5282 25.2767C77.1715 25.6638 77.8942 26.2317 77.8942 27.1781C77.8942 28.2793 76.7585 29.0794 75.2099 29.0794C73.5494 29.0794 72.3965 28.3309 72.2331 27.1522H70.3231Z" fill="white"/>
  <path d="M51.8357 21.3014C50.6072 21.3014 49.5447 21.9157 48.9969 22.945H48.8641V21.4509H47.1458V33.4953H48.9305V29.1208H49.0716C49.5447 30.0754 50.5657 30.6398 51.8523 30.6398C54.1351 30.6398 55.5877 28.8386 55.5877 25.9665C55.5877 23.0944 54.1351 21.3014 51.8357 21.3014ZM51.3294 29.0378C49.8353 29.0378 48.8973 27.8591 48.8973 25.9748C48.8973 24.0822 49.8353 22.9035 51.3377 22.9035C52.8484 22.9035 53.7532 24.0573 53.7532 25.9665C53.7532 27.884 52.8484 29.0378 51.3294 29.0378Z" fill="white"/>
  <path d="M61.8325 21.3014C60.604 21.3014 59.5415 21.9157 58.9937 22.945H58.8609V21.4509H57.1426V33.4953H58.9273V29.1208H59.0684C59.5415 30.0754 60.5625 30.6398 61.8491 30.6398C64.1319 30.6398 65.5845 28.8386 65.5845 25.9665C65.5845 23.0944 64.1319 21.3014 61.8325 21.3014ZM61.3262 29.0378C59.8321 29.0378 58.8941 27.8591 58.8941 25.9748C58.8941 24.0822 59.8321 22.9035 61.3345 22.9035C62.8452 22.9035 63.75 24.0573 63.75 25.9665C63.75 27.884 62.8452 29.0378 61.3262 29.0378Z" fill="white"/>
  <path d="M43.9438 30.4904H45.9914L41.509 18.0755H39.4356L34.9531 30.4904H36.9319L38.0762 27.1953H42.8081L43.9438 30.4904ZM40.3733 20.3297H40.5196L42.3177 25.5778H38.5666L40.3733 20.3297Z" fill="white"/>
  <path d="M36.1523 8.71069V14.6997H38.3147C40.0994 14.6997 41.1328 13.5999 41.1328 11.6865C41.1328 9.80225 40.0911 8.71069 38.3147 8.71069H36.1523ZM37.082 9.55737H38.2109C39.4519 9.55737 40.1865 10.3459 40.1865 11.699C40.1865 13.0728 39.4644 13.853 38.2109 13.853H37.082V9.55737Z" fill="white"/>
  <path d="M44.2979 14.7869C45.6177 14.7869 46.4271 13.9028 46.4271 12.4377C46.4271 10.981 45.6136 10.0928 44.2979 10.0928C42.9781 10.0928 42.1646 10.981 42.1646 12.4377C42.1646 13.9028 42.9739 14.7869 44.2979 14.7869ZM44.2979 13.9941C43.5218 13.9941 43.086 13.4255 43.086 12.4377C43.086 11.4583 43.5218 10.8855 44.2979 10.8855C45.0699 10.8855 45.5098 11.4583 45.5098 12.4377C45.5098 13.4214 45.0699 13.9941 44.2979 13.9941Z" fill="white"/>
  <path d="M53.3192 10.1799H52.4269L51.6217 13.6289H51.5511L50.6214 10.1799H49.7665L48.8368 13.6289H48.7704L47.961 10.1799H47.0562L48.3014 14.6997H49.2186L50.1483 11.3711H50.2188L51.1527 14.6997H52.0782L53.3192 10.1799Z" fill="white"/>
  <path d="M54.3468 14.6997H55.2392V12.0559C55.2392 11.3503 55.6583 10.9104 56.3183 10.9104C56.9782 10.9104 57.2936 11.2715 57.2936 11.9978V14.6997H58.1859V11.7737C58.1859 10.6987 57.6298 10.0928 56.6212 10.0928C55.9406 10.0928 55.4923 10.3958 55.2724 10.8979H55.206V10.1799H54.3468V14.6997Z" fill="white"/>
  <path d="M59.5913 14.6997H60.4836V8.41602H59.5913V14.6997Z" fill="white"/>
  <path d="M63.8396 14.7869C65.1594 14.7869 65.9688 13.9028 65.9688 12.4377C65.9688 10.981 65.1553 10.0928 63.8396 10.0928C62.5198 10.0928 61.7063 10.981 61.7063 12.4377C61.7063 13.9028 62.5156 14.7869 63.8396 14.7869ZM63.8396 13.9941C63.0635 13.9941 62.6277 13.4255 62.6277 12.4377C62.6277 11.4583 63.0635 10.8855 63.8396 10.8855C64.6116 10.8855 65.0515 11.4583 65.0515 12.4377C65.0515 13.4214 64.6116 13.9941 63.8396 13.9941Z" fill="white"/>
  <path d="M68.6275 14.0232C68.1419 14.0232 67.7891 13.7866 67.7891 13.3799C67.7891 12.9814 68.0713 12.7698 68.6939 12.7283L69.7979 12.6577V13.0354C69.7979 13.5957 69.2999 14.0232 68.6275 14.0232ZM68.3992 14.7744C68.9927 14.7744 69.4866 14.5171 69.7564 14.0647H69.827V14.6997H70.6861V11.6118C70.6861 10.6572 70.0469 10.0928 68.9139 10.0928C67.8887 10.0928 67.1583 10.5908 67.0669 11.3669H67.9302C68.0298 11.0474 68.3743 10.8647 68.8724 10.8647C69.4825 10.8647 69.7979 11.1345 69.7979 11.6118V12.002L68.5735 12.0725C67.4986 12.1389 66.8926 12.6079 66.8926 13.4214C66.8926 14.2473 67.5276 14.7744 68.3992 14.7744Z" fill="white"/>
  <path d="M73.7142 14.7744C74.3368 14.7744 74.8639 14.4797 75.1336 13.9858H75.2042V14.6997H76.0592V8.41602H75.1668V10.8979H75.1004C74.8556 10.3999 74.3326 10.1052 73.7142 10.1052C72.5728 10.1052 71.8382 11.01 71.8382 12.4377C71.8382 13.8696 72.5645 14.7744 73.7142 14.7744ZM73.9674 10.9062C74.7145 10.9062 75.1834 11.4998 75.1834 12.4419C75.1834 13.3882 74.7186 13.9734 73.9674 13.9734C73.212 13.9734 72.7596 13.3965 72.7596 12.4377C72.7596 11.4873 73.2162 10.9062 73.9674 10.9062Z" fill="white"/>
  <path d="M81.8457 14.7869C83.1655 14.7869 83.9748 13.9028 83.9748 12.4377C83.9748 10.981 83.1613 10.0928 81.8457 10.0928C80.5258 10.0928 79.7124 10.981 79.7124 12.4377C79.7124 13.9028 80.5217 14.7869 81.8457 14.7869ZM81.8457 13.9941C81.0695 13.9941 80.6337 13.4255 80.6337 12.4377C80.6337 11.4583 81.0695 10.8855 81.8457 10.8855C82.6176 10.8855 83.0576 11.4583 83.0576 12.4377C83.0576 13.4214 82.6176 13.9941 81.8457 13.9941Z" fill="white"/>
  <path d="M85.156 14.6997H86.0483V12.0559C86.0483 11.3503 86.4675 10.9104 87.1274 10.9104C87.7874 10.9104 88.1028 11.2715 88.1028 11.9978V14.6997H88.9951V11.7737C88.9951 10.6987 88.439 10.0928 87.4304 10.0928C86.7498 10.0928 86.3015 10.3958 86.0815 10.8979H86.0151V10.1799H85.156V14.6997Z" fill="white"/>
  <path d="M93.1048 9.05518V10.2007H92.3868V10.9519H93.1048V13.5044C93.1048 14.376 93.4991 14.7246 94.4911 14.7246C94.6654 14.7246 94.8314 14.7039 94.9767 14.679V13.936C94.8521 13.9485 94.7733 13.9568 94.6363 13.9568C94.1922 13.9568 93.9972 13.7493 93.9972 13.2761V10.9519H94.9767V10.2007H93.9972V9.05518H93.1048Z" fill="white"/>
  <path d="M96.1745 14.6997H97.0668V12.0601C97.0668 11.3752 97.4735 10.9146 98.204 10.9146C98.8349 10.9146 99.171 11.2798 99.171 12.002V14.6997H100.063V11.782C100.063 10.707 99.4699 10.0969 98.507 10.0969C97.8263 10.0969 97.349 10.3999 97.1291 10.9062H97.0585V8.41602H96.1745V14.6997Z" fill="white"/>
  <path d="M103.282 10.8523C103.942 10.8523 104.374 11.313 104.395 12.0227H102.112C102.162 11.3171 102.623 10.8523 103.282 10.8523ZM104.391 13.4795C104.225 13.8323 103.855 14.0273 103.316 14.0273C102.602 14.0273 102.141 13.5251 102.112 12.7324V12.6826H105.304V12.3713C105.304 10.9519 104.544 10.0928 103.287 10.0928C102.012 10.0928 101.203 11.01 101.203 12.4543C101.203 13.8987 101.996 14.7869 103.291 14.7869C104.324 14.7869 105.046 14.2888 105.25 13.4795H104.391Z" fill="white"/>
  <path d="M25.27 20.3011C25.2916 18.6201 26.1944 17.0295 27.6265 16.149C26.7231 14.8587 25.2098 14.0406 23.6354 13.9913C21.9561 13.8151 20.3282 14.9962 19.4725 14.9962C18.6002 14.9962 17.2827 14.0088 15.864 14.038C14.0147 14.0978 12.2907 15.1491 11.391 16.7659C9.45705 20.1143 10.8996 25.0354 12.7522 27.742C13.6791 29.0673 14.7624 30.5478 16.1799 30.4953C17.5669 30.4377 18.085 29.6108 19.7593 29.6108C21.418 29.6108 21.9041 30.4953 23.3503 30.4619C24.8387 30.4377 25.7764 29.1306 26.6708 27.7927C27.3368 26.8484 27.8492 25.8047 28.1892 24.7002C26.4401 23.9604 25.272 22.2002 25.27 20.3011Z" fill="white"/>
  <path d="M22.5383 12.2113C23.3498 11.2371 23.7496 9.98494 23.6528 8.7207C22.413 8.85092 21.2677 9.44348 20.4452 10.3803C19.641 11.2956 19.2224 12.5258 19.3015 13.7417C20.5418 13.7545 21.7611 13.178 22.5383 12.2113Z" fill="white"/>
</svg>