<svg width="224" height="67" viewBox="0 0 224 67" fill="none" xmlns="http://www.w3.org/2000/svg">
<path d="M221.9 59.1838C221.9 62.6792 219.068 65.5104 215.566 65.5104H8.31021C4.80994 65.5104 1.96875 62.6792 1.96875 59.1838V8.73133C1.96875 5.23767 4.80994 2.39648 8.31021 2.39648H215.565C219.068 2.39648 221.898 5.23767 221.898 8.73133L221.9 59.1838Z" fill="black"/>
<path d="M50.2656 33.6067C50.2177 28.2828 54.6248 25.6927 54.8263 25.5721C52.3304 21.933 48.4617 21.4358 47.1023 21.3962C43.8531 21.0543 40.7013 23.3404 39.0462 23.3404C37.358 23.3404 34.8092 21.4292 32.0622 21.4854C28.5272 21.5399 25.2202 23.5865 23.4065 26.7647C19.6634 33.2449 22.455 42.7678 26.0412 48.0059C27.8351 50.5712 29.9313 53.4355 32.675 53.3347C35.3593 53.2241 36.3619 51.6234 39.6012 51.6234C42.8108 51.6234 43.7523 53.3347 46.5506 53.2703C49.4314 53.2241 51.2451 50.6934 52.9763 48.105C55.0493 45.1647 55.8819 42.269 55.9149 42.1203C55.8472 42.0972 50.3201 39.9878 50.2656 33.6067Z" fill="white"/>
<path d="M44.9807 17.9497C46.4244 16.1443 47.4122 13.688 47.138 11.1953C45.0484 11.2878 42.4352 12.6407 40.9303 14.4065C39.5989 15.9626 38.4096 18.513 38.7169 20.9115C41.0641 21.0866 43.4742 19.7271 44.9807 17.9497Z" fill="white"/>
<path d="M89.1132 52.9653H85.3619L83.307 46.5082H76.1644L74.2069 52.9653H70.5547L77.6312 30.9824H82.002L89.1132 52.9653ZM82.6875 43.7991L80.8292 38.059C80.6326 37.4725 80.2643 36.0916 79.7208 33.9178H79.6547C79.4383 34.8527 79.0898 36.2337 78.6108 38.059L76.7855 43.7991H82.6875V43.7991Z" fill="white"/>
<path d="M107.312 44.8451C107.312 47.541 106.583 49.6719 105.126 51.2362C103.821 52.6287 102.201 53.3241 100.266 53.3241C98.1785 53.3241 96.6787 52.5742 95.7652 51.0743H95.6991V59.4244H92.1774V42.3327C92.1774 40.6379 92.1328 38.8985 92.0469 37.1145H95.1441L95.3407 39.6269H95.4067C96.5812 37.7339 98.3636 36.7891 100.755 36.7891C102.625 36.7891 104.186 37.5274 105.435 39.0058C106.687 40.4859 107.312 42.4318 107.312 44.8451ZM103.724 44.974C103.724 43.4312 103.377 42.1592 102.68 41.1582C101.918 40.1142 100.896 39.5923 99.614 39.5923C98.7451 39.5923 97.9555 39.883 97.2502 40.4562C96.5432 41.0343 96.0807 41.7892 95.8643 42.7242C95.7553 43.1603 95.7008 43.5171 95.7008 43.7979V46.4408C95.7008 47.5938 96.0543 48.5668 96.7613 49.3613C97.4683 50.1558 98.3867 50.5523 99.5165 50.5523C100.843 50.5523 101.875 50.0402 102.614 49.0194C103.354 47.9969 103.724 46.649 103.724 44.974Z" fill="white"/>
<path d="M125.544 44.8451C125.544 47.541 124.816 49.6719 123.357 51.2362C122.054 52.6287 120.434 53.3241 118.499 53.3241C116.411 53.3241 114.911 52.5742 114 51.0743H113.933V59.4244H110.412V42.3327C110.412 40.6379 110.367 38.8985 110.281 37.1145H113.378L113.575 39.6269H113.641C114.814 37.7339 116.596 36.7891 118.99 36.7891C120.858 36.7891 122.419 37.5274 123.671 39.0058C124.918 40.4859 125.544 42.4318 125.544 44.8451ZM121.957 44.974C121.957 43.4312 121.608 42.1592 120.911 41.1582C120.149 40.1142 119.13 39.5923 117.847 39.5923C116.976 39.5923 116.188 39.883 115.481 40.4562C114.774 41.0343 114.313 41.7892 114.097 42.7242C113.99 43.1603 113.933 43.5171 113.933 43.7979V46.4408C113.933 47.5938 114.287 48.5668 114.991 49.3613C115.698 50.1542 116.616 50.5523 117.749 50.5523C119.076 50.5523 120.108 50.0402 120.847 49.0194C121.587 47.9969 121.957 46.649 121.957 44.974Z" fill="white"/>
<path d="M145.927 46.8004C145.927 48.6703 145.278 50.1916 143.974 51.3661C142.542 52.6496 140.548 53.2905 137.986 53.2905C135.621 53.2905 133.725 52.8346 132.289 51.9211L133.105 48.9858C134.651 49.9207 136.348 50.3899 138.196 50.3899C139.523 50.3899 140.555 50.0892 141.297 49.4913C142.035 48.8933 142.403 48.0905 142.403 47.0895C142.403 46.1975 142.099 45.4459 141.49 44.8363C140.884 44.2268 139.871 43.6602 138.457 43.1366C134.608 41.7011 132.686 39.5983 132.686 36.8331C132.686 35.026 133.359 33.5443 134.709 32.3913C136.054 31.2367 137.848 30.6602 140.091 30.6602C142.091 30.6602 143.753 31.0087 145.079 31.7041L144.199 34.575C142.96 33.9011 141.559 33.5641 139.992 33.5641C138.753 33.5641 137.785 33.8697 137.091 34.4776C136.505 35.021 136.211 35.6834 136.211 36.4681C136.211 37.3369 136.546 38.0555 137.22 38.6204C137.806 39.1424 138.872 39.7073 140.418 40.3169C142.309 41.0784 143.698 41.9687 144.592 42.9896C145.482 44.0071 145.927 45.2807 145.927 46.8004Z" fill="white"/>
<path d="M157.571 39.7566H153.69V47.4526C153.69 49.41 154.373 50.3879 155.744 50.3879C156.374 50.3879 156.896 50.3334 157.309 50.2244L157.406 52.8987C156.712 53.1581 155.799 53.2886 154.667 53.2886C153.277 53.2886 152.19 52.864 151.405 52.0166C150.624 51.1676 150.231 49.7437 150.231 47.7433V39.7533H147.918V37.1103H150.231V34.208L153.69 33.1641V37.1103H157.571V39.7566Z" fill="white"/>
<path d="M175.084 44.9099C175.084 47.3464 174.387 49.3467 172.996 50.911C171.538 52.5216 169.602 53.3244 167.189 53.3244C164.863 53.3244 163.011 52.553 161.63 51.0102C160.249 49.4673 159.559 47.5198 159.559 45.1725C159.559 42.7162 160.269 40.7043 161.694 39.14C163.117 37.574 165.036 36.791 167.449 36.791C169.775 36.791 171.647 37.5624 173.059 39.1069C174.41 40.6051 175.084 42.5395 175.084 44.9099ZM171.43 45.0238C171.43 43.562 171.118 42.3082 170.486 41.2626C169.747 39.9973 168.692 39.3663 167.324 39.3663C165.908 39.3663 164.833 39.9989 164.095 41.2626C163.462 42.3099 163.15 43.5834 163.15 45.0899C163.15 46.5518 163.462 47.8056 164.095 48.8495C164.856 50.1149 165.92 50.7459 167.293 50.7459C168.637 50.7459 169.693 50.1016 170.454 48.8165C171.103 47.7511 171.43 46.4841 171.43 45.0238Z" fill="white"/>
<path d="M186.531 40.2117C186.183 40.1473 185.811 40.1142 185.421 40.1142C184.182 40.1142 183.224 40.5817 182.55 41.5183C181.964 42.3442 181.67 43.3882 181.67 44.6486V52.9656H178.15L178.183 42.1064C178.183 40.2794 178.138 38.616 178.051 37.1161H181.118L181.247 40.1489H181.345C181.716 39.1066 182.303 38.2675 183.105 37.6381C183.89 37.0715 184.737 36.7891 185.651 36.7891C185.976 36.7891 186.27 36.8122 186.531 36.8535V40.2117Z" fill="white"/>
<path d="M202.282 44.2906C202.282 44.9216 202.241 45.4535 202.153 45.8879H191.588C191.63 47.4539 192.14 48.6514 193.121 49.4774C194.011 50.2158 195.163 50.5858 196.577 50.5858C198.141 50.5858 199.568 50.3363 200.852 49.8358L201.404 52.2806C199.904 52.9347 198.133 53.2601 196.09 53.2601C193.632 53.2601 191.702 52.5366 190.298 51.0912C188.897 49.6459 188.195 47.7049 188.195 45.2701C188.195 42.8799 188.848 40.8894 190.154 39.302C191.522 37.6072 193.371 36.7598 195.696 36.7598C197.981 36.7598 199.71 37.6072 200.885 39.302C201.815 40.6482 202.282 42.3133 202.282 44.2906ZM198.924 43.3771C198.947 42.3331 198.718 41.4312 198.24 40.6697C197.631 39.6901 196.694 39.2012 195.434 39.2012C194.282 39.2012 193.346 39.6786 192.631 40.6367C192.044 41.3982 191.696 42.3116 191.588 43.3754H198.924V43.3771Z" fill="white"/>
<path d="M81.5216 17.4592C81.5216 19.4034 80.9385 20.867 79.7739 21.8498C78.6953 22.7567 77.1623 23.2109 75.1768 23.2109C74.1923 23.2109 73.3499 23.168 72.6445 23.0821V12.459C73.5646 12.3104 74.5557 12.2344 75.6261 12.2344C77.5175 12.2344 78.943 12.6457 79.9044 13.4683C80.9814 14.3983 81.5216 15.728 81.5216 17.4592ZM79.6963 17.5071C79.6963 16.2467 79.3626 15.2804 78.6953 14.6064C78.0279 13.9341 77.0533 13.5972 75.7698 13.5972C75.2247 13.5972 74.7606 13.6335 74.3757 13.7095V21.7854C74.5888 21.8184 74.9786 21.8333 75.5452 21.8333C76.87 21.8333 77.8925 21.4649 78.6127 20.7282C79.3329 19.9915 79.6963 18.9178 79.6963 17.5071Z" fill="white"/>
<path d="M91.2008 19.1575C91.2008 20.3551 90.8589 21.3363 90.175 22.106C89.4581 22.8973 88.5083 23.2921 87.3223 23.2921C86.1792 23.2921 85.269 22.9138 84.5901 22.154C83.9129 21.3958 83.5742 20.4393 83.5742 19.2863C83.5742 18.0805 83.9228 17.091 84.6231 16.3229C85.3235 15.5548 86.2651 15.1699 87.4511 15.1699C88.5942 15.1699 89.5126 15.5482 90.2081 16.3064C90.8688 17.0431 91.2008 17.9946 91.2008 19.1575ZM89.4053 19.2137C89.4053 18.4951 89.25 17.879 88.9411 17.3652C88.5777 16.7441 88.0607 16.4336 87.3883 16.4336C86.6929 16.4336 86.1643 16.7441 85.8009 17.3652C85.4904 17.879 85.3367 18.505 85.3367 19.245C85.3367 19.9636 85.492 20.5797 85.8009 21.0935C86.1759 21.7146 86.6979 22.0251 87.3718 22.0251C88.0326 22.0251 88.5512 21.7096 88.9246 21.0769C89.245 20.5533 89.4053 19.9322 89.4053 19.2137Z" fill="white"/>
<path d="M104.177 15.3281L101.74 23.115H100.154L99.1451 19.7336C98.8891 18.8895 98.681 18.0504 98.5191 17.2178H98.4877C98.3374 18.0735 98.1292 18.911 97.8616 19.7336L96.7896 23.115H95.1856L92.8945 15.3281H94.6736L95.554 19.0299C95.7671 19.9054 95.9422 20.7396 96.0826 21.5292H96.114C96.2428 20.8783 96.4559 20.0491 96.7566 19.0464L97.8616 15.3298H99.2723L100.331 18.9672C100.587 19.8542 100.795 20.7082 100.956 21.5308H101.003C101.121 20.7297 101.297 19.8757 101.532 18.9672L102.477 15.3298H104.177V15.3281Z" fill="white"/>
<path d="M113.15 23.1164H111.419V18.6564C111.419 17.282 110.897 16.5949 109.849 16.5949C109.336 16.5949 108.921 16.7832 108.599 17.1615C108.28 17.5397 108.118 17.9857 108.118 18.4961V23.1147H106.387V17.5546C106.387 16.8707 106.366 16.129 106.324 15.3262H107.846L107.927 16.5437H107.974C108.176 16.1654 108.477 15.8532 108.871 15.6038C109.34 15.313 109.866 15.166 110.441 15.166C111.167 15.166 111.772 15.4006 112.253 15.8714C112.851 16.4479 113.15 17.3085 113.15 18.4515V23.1164V23.1164Z" fill="white"/>
<path d="M117.925 23.1156H116.195V11.7559H117.925V23.1156Z" fill="white"/>
<path d="M128.119 19.1575C128.119 20.3551 127.777 21.3363 127.093 22.106C126.376 22.8973 125.425 23.2921 124.24 23.2921C123.096 23.2921 122.185 22.9138 121.508 22.154C120.831 21.3958 120.492 20.4393 120.492 19.2863C120.492 18.0805 120.841 17.091 121.541 16.3229C122.242 15.5548 123.183 15.1699 124.367 15.1699C125.512 15.1699 126.429 15.5482 127.126 16.3064C127.787 17.0431 128.119 17.9946 128.119 19.1575ZM126.322 19.2137C126.322 18.4951 126.166 17.879 125.857 17.3652C125.496 16.7441 124.977 16.4336 124.306 16.4336C123.609 16.4336 123.081 16.7441 122.719 17.3652C122.408 17.879 122.255 18.505 122.255 19.245C122.255 19.9636 122.41 20.5797 122.719 21.0935C123.094 21.7146 123.616 22.0251 124.29 22.0251C124.951 22.0251 125.468 21.7096 125.841 21.0769C126.163 20.5533 126.322 19.9322 126.322 19.2137Z" fill="white"/>
<path d="M136.494 23.1153H134.94L134.811 22.2184H134.763C134.231 22.9336 133.473 23.2921 132.488 23.2921C131.753 23.2921 131.159 23.0559 130.711 22.5867C130.305 22.1606 130.102 21.6303 130.102 21.001C130.102 20.0495 130.498 19.3243 131.296 18.8222C132.092 18.32 133.212 18.0739 134.654 18.0854V17.9401C134.654 16.9143 134.116 16.4022 133.037 16.4022C132.269 16.4022 131.592 16.5955 131.007 16.9787L130.655 15.8422C131.378 15.3946 132.272 15.1699 133.326 15.1699C135.361 15.1699 136.382 16.2436 136.382 18.391V21.2586C136.382 22.0367 136.42 22.6561 136.494 23.1153ZM134.697 20.4393V19.2384C132.787 19.2054 131.833 19.729 131.833 20.8077C131.833 21.214 131.942 21.518 132.165 21.7212C132.388 21.9243 132.672 22.0251 133.01 22.0251C133.39 22.0251 133.746 21.9045 134.069 21.665C134.395 21.4238 134.595 21.1182 134.669 20.7433C134.687 20.659 134.697 20.5566 134.697 20.4393Z" fill="white"/>
<path d="M146.332 23.1156H144.796L144.715 21.8652H144.667C144.176 22.8167 143.34 23.2924 142.166 23.2924C141.228 23.2924 140.446 22.924 139.827 22.1873C139.207 21.4506 138.898 20.4942 138.898 19.3197C138.898 18.0593 139.234 17.0385 139.908 16.2588C140.56 15.532 141.36 15.1686 142.311 15.1686C143.357 15.1686 144.089 15.5204 144.505 16.2258H144.538V11.7559H146.271V21.0178C146.271 21.776 146.29 22.4747 146.332 23.1156ZM144.538 19.8318V18.5334C144.538 18.3088 144.521 18.1271 144.49 17.9883C144.392 17.572 144.183 17.2218 143.864 16.9394C143.542 16.6569 143.154 16.5148 142.706 16.5148C142.06 16.5148 141.555 16.7709 141.183 17.2846C140.815 17.7983 140.628 18.4541 140.628 19.2553C140.628 20.025 140.805 20.6494 141.16 21.1301C141.535 21.6422 142.04 21.8982 142.673 21.8982C143.241 21.8982 143.695 21.6851 144.041 21.2573C144.374 20.8625 144.538 20.3868 144.538 19.8318Z" fill="white"/>
<path d="M161.138 19.1575C161.138 20.3551 160.796 21.3363 160.113 22.106C159.396 22.8973 158.447 23.2921 157.26 23.2921C156.118 23.2921 155.208 22.9138 154.528 22.154C153.85 21.3958 153.512 20.4393 153.512 19.2863C153.512 18.0805 153.86 17.091 154.561 16.3229C155.261 15.5548 156.203 15.1699 157.39 15.1699C158.532 15.1699 159.452 15.5482 160.146 16.3064C160.806 17.0431 161.138 17.9946 161.138 19.1575ZM159.344 19.2137C159.344 18.4951 159.189 17.879 158.88 17.3652C158.515 16.7441 158 16.4336 157.326 16.4336C156.632 16.4336 156.103 16.7441 155.738 17.3652C155.428 17.879 155.274 18.505 155.274 19.245C155.274 19.9636 155.43 20.5797 155.738 21.0935C156.113 21.7146 156.635 22.0251 157.309 22.0251C157.97 22.0251 158.49 21.7096 158.864 21.0769C159.183 20.5533 159.344 19.9322 159.344 19.2137Z" fill="white"/>
<path d="M170.445 23.1164H168.715V18.6564C168.715 17.282 168.193 16.5949 167.145 16.5949C166.631 16.5949 166.216 16.7832 165.896 17.1615C165.575 17.5397 165.415 17.9857 165.415 18.4961V23.1147H163.682V17.5546C163.682 16.8707 163.662 16.129 163.621 15.3262H165.141L165.222 16.5437H165.27C165.473 16.1654 165.773 15.8532 166.167 15.6038C166.637 15.313 167.161 15.166 167.738 15.166C168.463 15.166 169.067 15.4006 169.548 15.8714C170.148 16.4479 170.445 17.3085 170.445 18.4515V23.1164V23.1164Z" fill="white"/>
<path d="M182.098 16.6246H180.192V20.4074C180.192 21.3688 180.53 21.8495 181.201 21.8495C181.512 21.8495 181.769 21.823 181.972 21.7685L182.017 23.0817C181.675 23.2106 181.226 23.275 180.672 23.275C179.989 23.275 179.457 23.0669 179.072 22.6506C178.685 22.2343 178.494 21.534 178.494 20.5511V16.6246H177.355V15.3279H178.494V13.9007L180.19 13.3887V15.3263H182.096V16.6246H182.098Z" fill="white"/>
<path d="M191.259 23.1156H189.526V18.6887C189.526 17.2929 189.004 16.5941 187.958 16.5941C187.156 16.5941 186.607 16.9988 186.307 17.8082C186.255 17.9784 186.226 18.1865 186.226 18.431V23.114H184.496V11.7559H186.226V16.4488H186.259C186.804 15.5948 187.585 15.1686 188.598 15.1686C189.315 15.1686 189.908 15.4031 190.378 15.8739C190.965 16.4603 191.259 17.3325 191.259 18.4855V23.1156V23.1156Z" fill="white"/>
<path d="M200.716 18.8547C200.716 19.1653 200.693 19.4263 200.651 19.6394H195.46C195.483 20.4091 195.731 20.9955 196.211 21.4019C196.651 21.7653 197.217 21.947 197.911 21.947C198.679 21.947 199.38 21.8248 200.011 21.5786L200.281 22.7812C199.543 23.1017 198.674 23.2619 197.668 23.2619C196.462 23.2619 195.513 22.9067 194.825 22.1964C194.135 21.4861 193.793 20.533 193.793 19.3371C193.793 18.1626 194.112 17.1847 194.754 16.405C195.425 15.5725 196.332 15.1562 197.477 15.1562C198.597 15.1562 199.447 15.5725 200.022 16.405C200.486 17.0658 200.716 17.8835 200.716 18.8547ZM199.064 18.4071C199.077 17.8934 198.963 17.4507 198.729 17.0774C198.428 16.5967 197.971 16.3555 197.351 16.3555C196.786 16.3555 196.325 16.5901 195.973 17.0608C195.686 17.4358 195.516 17.8835 195.46 18.4071H199.064Z" fill="white"/>
</svg>
