<svg width="224" height="67" viewBox="0 0 224 67" fill="none" xmlns="http://www.w3.org/2000/svg">
<g clip-path="url(#clip0_713_10033)">
<path d="M215.236 67.0002H8.76296C4.22045 67.0002 0.503906 63.2836 0.503906 58.7411V9.18679C0.503906 4.64428 4.22045 0.927734 8.76296 0.927734H215.236C219.779 0.927734 223.495 4.64428 223.495 9.18679V58.7411C223.495 63.2836 219.779 67.0002 215.236 67.0002Z" fill="#100F0D"/>
<path d="M177.141 50.4819H180.224V29.8309H177.141V50.4819ZM204.904 37.2704L201.37 46.2231H201.265L197.598 37.2704H194.278L199.778 49.7832L196.642 56.7439H199.856L208.331 37.271L204.904 37.2704ZM187.423 48.1362C186.415 48.1362 185.006 47.6309 185.006 46.3824C185.006 44.7886 186.761 44.1776 188.274 44.1776C189.628 44.1776 190.267 44.4693 191.09 44.868C190.851 46.7811 189.204 48.1361 187.423 48.1361L187.423 48.1362ZM187.796 36.8187C185.565 36.8187 183.254 37.802 182.297 39.9805L185.033 41.1225C185.618 39.9805 186.706 39.6089 187.849 39.6089C189.443 39.6089 191.064 40.5644 191.09 42.2653V42.4775C190.532 42.1587 189.336 41.6807 187.876 41.6807C184.925 41.6807 181.924 43.3008 181.924 46.3295C181.924 49.0925 184.342 50.8727 187.051 50.8727C189.123 50.8727 190.267 49.9428 190.983 48.8531H191.09V50.4481H194.067V42.5304C194.067 38.8641 191.328 36.8187 187.796 36.8187V36.8187ZM168.747 39.7842H164.363V32.7061H168.747C171.051 32.7061 172.36 34.6135 172.36 36.2451C172.36 37.8454 171.051 39.7842 168.747 39.7842ZM168.668 29.8314H161.282V50.4824H164.363V42.659H168.668C172.084 42.659 175.442 40.1864 175.442 36.2458C175.442 32.3061 172.084 29.8322 168.668 29.8322L168.668 29.8314ZM128.395 48.1397C126.266 48.1397 124.484 46.3562 124.484 43.9089C124.484 41.4331 126.266 39.6244 128.395 39.6244C130.498 39.6244 132.147 41.4332 132.147 43.9089C132.147 46.3562 130.498 48.1397 128.395 48.1397ZM131.934 38.4264H131.828C131.136 37.6017 129.805 36.8565 128.129 36.8565C124.616 36.8565 121.396 39.9439 121.396 43.9089C121.396 47.8468 124.616 50.9071 128.129 50.9071C129.805 50.9071 131.136 50.1618 131.828 49.3108H131.934V50.3212C131.934 53.01 130.498 54.4462 128.182 54.4462C126.294 54.4462 125.123 53.0893 124.643 51.9451L121.956 53.0627C122.727 54.9248 124.775 57.2142 128.182 57.2142C131.802 57.2142 134.863 55.0848 134.863 49.8952V37.2821H131.935L131.934 38.4264ZM136.992 50.4813H140.077V29.8303H136.992V50.4813ZM144.628 43.6689C144.549 40.9544 146.732 39.5709 148.301 39.5709C149.526 39.5709 150.562 40.1832 150.91 41.0608L144.628 43.6689ZM154.208 41.3267C153.623 39.7575 151.84 36.8565 148.194 36.8565C144.575 36.8565 141.568 39.7038 141.568 43.8819C141.568 47.8204 144.549 50.9072 148.54 50.9072C151.759 50.9072 153.623 48.9386 154.395 47.7939L152 46.197C151.201 47.3681 150.111 48.1398 148.54 48.1398C146.971 48.1398 145.852 47.4211 145.135 46.0106L154.528 42.1256L154.208 41.3267ZM79.3681 39.0122V41.9926H86.4997C86.2868 43.669 85.728 44.8929 84.8763 45.7447C83.8381 46.7822 82.2148 47.9268 79.368 47.9268C74.977 47.9268 71.5444 44.3877 71.5444 39.9968C71.5444 35.606 74.977 32.0663 79.368 32.0663C81.7365 32.0663 83.4658 32.998 84.7432 34.1955L86.8461 32.0927C85.0626 30.3899 82.6946 29.0859 79.368 29.0859C73.3529 29.0859 68.2969 33.9825 68.2969 39.9968C68.2969 46.0105 73.3529 50.9072 79.368 50.9072C82.6141 50.9072 85.0628 49.8426 86.9784 47.8469C88.9478 45.8776 89.56 43.1102 89.56 40.8745C89.56 40.1833 89.5064 39.5446 89.4 39.0122H79.3681ZM97.669 48.1397C95.5395 48.1397 93.7033 46.3833 93.7033 43.8819C93.7033 41.3538 95.5395 39.6245 97.669 39.6245C99.7975 39.6245 101.634 41.3538 101.634 43.8819C101.634 46.3833 99.7975 48.1397 97.669 48.1397ZM97.669 36.8565C93.7826 36.8565 90.6163 39.8103 90.6163 43.8819C90.6163 47.9268 93.7826 50.9072 97.669 50.9072C101.554 50.9072 104.721 47.9268 104.721 43.8819C104.721 39.8103 101.554 36.8565 97.669 36.8565V36.8565ZM113.052 48.1397C110.924 48.1397 109.087 46.3833 109.087 43.8819C109.087 41.3538 110.924 39.6245 113.052 39.6245C115.182 39.6245 117.017 41.3538 117.017 43.8819C117.017 46.3833 115.182 48.1397 113.052 48.1397ZM113.052 36.8565C109.167 36.8565 106.001 39.8103 106.001 43.8819C106.001 47.9268 109.167 50.9072 113.052 50.9072C116.939 50.9072 120.105 47.9268 120.105 43.8819C120.105 39.8103 116.939 36.8565 113.052 36.8565" fill="white"/>
<path d="M34.7215 33.0119L17.1367 51.677C17.1374 51.6809 17.1387 51.6841 17.1393 51.6881C17.6786 53.7149 19.5299 55.2073 21.7269 55.2073C22.6052 55.2073 23.4298 54.9698 24.1369 54.553L24.1931 54.5201L43.9881 43.0975L34.7215 33.0119Z" fill="#EB3131"/>
<path d="M52.5115 29.835L52.4947 29.8235L43.9486 24.8691L34.3203 33.4368L43.982 43.0973L52.483 38.1923C53.9734 37.3877 54.9852 35.8165 54.9852 34.0046C54.9852 32.2057 53.987 30.6424 52.5114 29.8351" fill="#F6B60B"/>
<path d="M17.1339 16.25C17.0282 16.6398 16.9727 17.0482 16.9727 17.4722V50.4551C16.9727 50.8783 17.0276 51.2881 17.1346 51.6765L35.3264 33.4884L17.1346 16.2505" fill="#5778C5"/>
<path d="M34.849 33.9653L43.9515 24.8655L24.1788 13.4016C23.4601 12.9711 22.6213 12.7227 21.7237 12.7227C19.5266 12.7227 17.6729 14.2177 17.1335 16.2469C17.1328 16.2489 17.1328 16.2503 17.1328 16.252L34.8489 33.9656" fill="#3BAD49"/>
<path d="M78.7879 17.0832H73.9692V18.2756H77.5801C77.482 19.2487 77.0948 20.0127 76.4418 20.5676C75.7889 21.1226 74.9552 21.4012 73.9693 21.4012C72.8878 21.4012 71.9715 21.0245 71.2207 20.276C70.4849 19.5121 70.1108 18.5674 70.1108 17.4292C70.1108 16.2911 70.4849 15.3464 71.2207 14.5825C71.9716 13.834 72.8878 13.4597 73.9693 13.4597C74.5243 13.4597 75.0533 13.5552 75.5384 13.7643C76.0237 13.9733 76.4134 14.265 76.718 14.6393L77.6342 13.723C77.2187 13.2506 76.6922 12.8894 76.0391 12.6261C75.3861 12.3628 74.7048 12.2364 73.9691 12.2364C72.5264 12.2364 71.3032 12.7371 70.3042 13.736C69.3054 14.7373 68.8047 15.971 68.8047 17.4292C68.8047 18.8874 69.3053 20.1238 70.3042 21.1227C71.3031 22.1214 72.5264 22.6223 73.9691 22.6223C75.4842 22.6223 76.6921 22.137 77.6212 21.151C78.4394 20.3304 78.8575 19.2205 78.8575 17.832C78.8575 17.5971 78.829 17.3467 78.7877 17.0834L78.7879 17.0832ZM80.6546 12.4582V22.4001H86.4591V21.1793H81.9322V18.0254H86.0153V16.833H81.9322V13.6816H86.4591V12.4581L80.6546 12.4582ZM94.5983 13.6817V12.4582H87.7665V13.6817H90.5437V22.4001H91.8213V13.6817H94.5983ZM100.783 12.4582H99.506V22.4001H100.783V12.4582ZM109.216 13.6817V12.4582H102.384V13.6817H105.161V22.4001H106.439V13.6817H109.216ZM122.108 13.7514C121.122 12.737 119.914 12.2363 118.471 12.2363C117.026 12.2363 115.818 12.737 114.832 13.7359C113.846 14.7218 113.361 15.9581 113.361 17.4291C113.361 18.9002 113.846 20.1366 114.832 21.1226C115.818 22.1213 117.026 22.6222 118.471 22.6222C119.901 22.6222 121.122 22.1213 122.108 21.1226C123.094 20.1367 123.579 18.9003 123.579 17.4291C123.579 15.971 123.094 14.7371 122.108 13.7514V13.7514ZM115.749 14.5824C116.484 13.834 117.387 13.4597 118.471 13.4597C119.553 13.4597 120.456 13.834 121.179 14.5824C121.914 15.3179 122.276 16.2779 122.276 17.4291C122.276 18.5829 121.914 19.5403 121.179 20.2759C120.456 21.0244 119.553 21.4012 118.471 21.4012C117.387 21.4012 116.484 21.0244 115.749 20.2759C115.028 19.5249 114.667 18.5829 114.667 17.4291C114.667 16.278 115.028 15.3334 115.749 14.5824V14.5824ZM126.614 16.2084L126.56 14.2906H126.614L131.668 22.4H133.002V12.4581H131.725V18.2755L131.779 20.1933H131.725L126.893 12.4581H125.337V22.4H126.614V16.2084Z" fill="white" stroke="white" stroke-width="0.26666" stroke-miterlimit="10"/>
</g>
<defs>
<clipPath id="clip0_713_10033">
<rect width="223" height="66.0737" fill="white" transform="translate(0.5 0.925781)"/>
</clipPath>
</defs>
</svg>
