<svg width="132" height="44" viewBox="0 0 132 44" fill="none" xmlns="http://www.w3.org/2000/svg">
<rect width="132" height="44" rx="7" fill="black"/>
<path d="M89.6793 21.1214V23.6415H88.0997V25.2942H89.6793V30.9097C89.6793 32.8271 90.5468 33.5941 92.729 33.5941C93.1125 33.5941 93.4778 33.5485 93.7973 33.4937V31.8593C93.5234 31.8867 93.3499 31.9049 93.0486 31.9049C92.0716 31.9049 91.6425 31.4484 91.6425 30.4075V25.2942H93.7973V23.6415H91.6425V21.1214H89.6793Z" fill="white"/>
<path d="M99.3566 33.7311C102.26 33.7311 104.041 31.7862 104.041 28.563C104.041 25.3581 102.251 23.4041 99.3566 23.4041C96.453 23.4041 94.6633 25.3581 94.6633 28.563C94.6633 31.7862 96.4438 33.7311 99.3566 33.7311ZM99.3566 31.9871C97.6491 31.9871 96.6904 30.7362 96.6904 28.563C96.6904 26.4082 97.6491 25.1481 99.3566 25.1481C101.055 25.1481 102.023 26.4082 102.023 28.563C102.023 30.727 101.055 31.9871 99.3566 31.9871Z" fill="white"/>
<path d="M105.564 33.5394H107.527V27.6682C107.527 26.2712 108.577 25.3307 110.066 25.3307C110.413 25.3307 110.997 25.3946 111.161 25.4494V23.5137C110.951 23.4589 110.577 23.4315 110.285 23.4315C108.988 23.4315 107.883 24.1437 107.6 25.1207H107.454V23.5958H105.564V33.5394Z" fill="white"/>
<path d="M116.036 25.075C117.488 25.075 118.437 26.0886 118.483 27.6499H113.461C113.57 26.0977 114.584 25.075 116.036 25.075ZM118.474 30.8549C118.108 31.631 117.296 32.0602 116.109 32.0602C114.538 32.0602 113.525 30.9553 113.461 29.2113V29.1018H120.482V28.4169C120.482 25.2942 118.812 23.4041 116.045 23.4041C113.242 23.4041 111.461 25.422 111.461 28.5996C111.461 31.7771 113.205 33.7311 116.054 33.7311C118.328 33.7311 119.916 32.6354 120.364 30.8549H118.474Z" fill="white"/>
<path d="M76.8054 29.8674C76.9568 32.3091 78.9915 33.8706 82.02 33.8706C85.2566 33.8706 87.2819 32.2333 87.2819 29.6213C87.2819 27.5677 86.1273 26.432 83.326 25.779L81.8212 25.4099C80.042 24.9935 79.3228 24.4351 79.3228 23.4603C79.3228 22.23 80.4395 21.4256 82.1146 21.4256C83.7045 21.4256 84.8024 22.2111 85.0011 23.4698H87.0642C86.9412 21.1701 84.9159 19.5518 82.143 19.5518C79.1619 19.5518 77.1745 21.1701 77.1745 23.6023C77.1745 25.6086 78.3007 26.8011 80.7707 27.3784L82.531 27.8042C84.3386 28.2301 85.1336 28.8547 85.1336 29.8958C85.1336 31.1071 83.8844 31.9873 82.1809 31.9873C80.3543 31.9873 79.0862 31.1639 78.9064 29.8674H76.8054Z" fill="white"/>
<path d="M56.4693 23.4315C55.118 23.4315 53.9492 24.1072 53.3466 25.2394H53.2005V23.5958H51.3104V36.8447H53.2735V32.0328H53.4287C53.9492 33.0828 55.0723 33.7037 56.4876 33.7037C58.9986 33.7037 60.5965 31.7223 60.5965 28.563C60.5965 25.4038 58.9986 23.4315 56.4693 23.4315ZM55.9123 31.9415C54.2688 31.9415 53.237 30.6449 53.237 28.5722C53.237 26.4903 54.2688 25.1937 55.9215 25.1937C57.5833 25.1937 58.5785 26.4629 58.5785 28.563C58.5785 30.6723 57.5833 31.9415 55.9123 31.9415Z" fill="white"/>
<path d="M67.4658 23.4315C66.1144 23.4315 64.9457 24.1072 64.343 25.2394H64.1969V23.5958H62.3069V36.8447H64.27V32.0328H64.4252C64.9457 33.0828 66.0688 33.7037 67.4841 33.7037C69.995 33.7037 71.5929 31.7223 71.5929 28.563C71.5929 25.4038 69.995 23.4315 67.4658 23.4315ZM66.9088 31.9415C65.2653 31.9415 64.2335 30.6449 64.2335 28.5722C64.2335 26.4903 65.2653 25.1937 66.9179 25.1937C68.5798 25.1937 69.575 26.4629 69.575 28.563C69.575 30.6723 68.5798 31.9415 66.9088 31.9415Z" fill="white"/>
<path d="M47.7882 33.5394H50.0406L45.1099 19.883H42.8291L37.8984 33.5394H40.0751L41.3338 29.9147H46.5389L47.7882 33.5394ZM43.8607 22.3625H44.0216L45.9995 28.1355H41.8733L43.8607 22.3625Z" fill="white"/>
<path d="M39.2148 9.58196V16.1699H41.5934C43.5566 16.1699 44.6934 14.96 44.6934 12.8554C44.6934 10.7827 43.5474 9.58196 41.5934 9.58196H39.2148ZM40.2375 10.5133H41.4793C42.8444 10.5133 43.6524 11.3807 43.6524 12.8691C43.6524 14.3802 42.8581 15.2385 41.4793 15.2385H40.2375V10.5133Z" fill="white"/>
<path d="M48.175 16.2657C49.6268 16.2657 50.517 15.2933 50.517 13.6817C50.517 12.0792 49.6222 11.1022 48.175 11.1022C46.7232 11.1022 45.8283 12.0792 45.8283 13.6817C45.8283 15.2933 46.7186 16.2657 48.175 16.2657ZM48.175 15.3937C47.3212 15.3937 46.8419 14.7683 46.8419 13.6817C46.8419 12.6043 47.3212 11.9742 48.175 11.9742C49.0241 11.9742 49.5081 12.6043 49.5081 13.6817C49.5081 14.7637 49.0241 15.3937 48.175 15.3937Z" fill="white"/>
<path d="M58.0984 11.1981H57.1168L56.2311 14.992H56.1535L55.1308 11.1981H54.1904L53.1677 14.992H53.0947L52.2044 11.1981H51.2091L52.5788 16.1699H53.5877L54.6104 12.5084H54.688L55.7152 16.1699H56.7333L58.0984 11.1981Z" fill="white"/>
<path d="M59.2288 16.1699H60.2103V13.2617C60.2103 12.4856 60.6715 12.0016 61.3974 12.0016C62.1233 12.0016 62.4702 12.3988 62.4702 13.1978V16.1699H63.4518V12.9512C63.4518 11.7688 62.84 11.1022 61.7306 11.1022C60.9819 11.1022 60.4888 11.4355 60.2469 11.9879H60.1738V11.1981H59.2288V16.1699Z" fill="white"/>
<path d="M64.9977 16.1699H65.9792V9.25781H64.9977V16.1699Z" fill="white"/>
<path d="M69.6708 16.2657C71.1226 16.2657 72.0129 15.2933 72.0129 13.6817C72.0129 12.0792 71.1181 11.1022 69.6708 11.1022C68.219 11.1022 67.3242 12.0792 67.3242 13.6817C67.3242 15.2933 68.2145 16.2657 69.6708 16.2657ZM69.6708 15.3937C68.8171 15.3937 68.3377 14.7683 68.3377 13.6817C68.3377 12.6043 68.8171 11.9742 69.6708 11.9742C70.52 11.9742 71.0039 12.6043 71.0039 13.6817C71.0039 14.7637 70.52 15.3937 69.6708 15.3937Z" fill="white"/>
<path d="M74.9375 15.4257C74.4034 15.4257 74.0153 15.1655 74.0153 14.7181C74.0153 14.2798 74.3257 14.0469 75.0106 14.0013L76.225 13.9237V14.3391C76.225 14.9555 75.6771 15.4257 74.9375 15.4257ZM74.6864 16.2521C75.3393 16.2521 75.8825 15.969 76.1793 15.4714H76.2569V16.1699H77.202V12.7732C77.202 11.7231 76.4989 11.1022 75.2525 11.1022C74.1249 11.1022 73.3213 11.6501 73.2209 12.5038H74.1705C74.2801 12.1523 74.659 11.9514 75.2069 11.9514C75.878 11.9514 76.225 12.2482 76.225 12.7732V13.2023L74.8782 13.28C73.6957 13.353 73.0292 13.8689 73.0292 14.7637C73.0292 15.6722 73.7277 16.2521 74.6864 16.2521Z" fill="white"/>
<path d="M80.5329 16.2521C81.2177 16.2521 81.7975 15.9279 82.0943 15.3846H82.1719V16.1699H83.1124V9.25781H82.1308V11.9879H82.0578C81.7884 11.4401 81.2131 11.1159 80.5329 11.1159C79.2774 11.1159 78.4693 12.1112 78.4693 13.6817C78.4693 15.2568 79.2683 16.2521 80.5329 16.2521ZM80.8114 11.9971C81.6332 11.9971 82.1491 12.6499 82.1491 13.6863C82.1491 14.7272 81.6377 15.3709 80.8114 15.3709C79.9805 15.3709 79.4828 14.7363 79.4828 13.6817C79.4828 12.6362 79.985 11.9971 80.8114 11.9971Z" fill="white"/>
<path d="M89.4775 16.2657C90.9293 16.2657 91.8196 15.2933 91.8196 13.6817C91.8196 12.0792 90.9247 11.1022 89.4775 11.1022C88.0257 11.1022 87.1309 12.0792 87.1309 13.6817C87.1309 15.2933 88.0211 16.2657 89.4775 16.2657ZM89.4775 15.3937C88.6238 15.3937 88.1444 14.7683 88.1444 13.6817C88.1444 12.6043 88.6238 11.9742 89.4775 11.9742C90.3267 11.9742 90.8106 12.6043 90.8106 13.6817C90.8106 14.7637 90.3267 15.3937 89.4775 15.3937Z" fill="white"/>
<path d="M93.1189 16.1699H94.1004V13.2617C94.1004 12.4856 94.5616 12.0016 95.2875 12.0016C96.0134 12.0016 96.3603 12.3988 96.3603 13.1978V16.1699H97.3419V12.9512C97.3419 11.7688 96.7301 11.1022 95.6207 11.1022C94.872 11.1022 94.3789 11.4355 94.137 11.9879H94.0639V11.1981H93.1189V16.1699Z" fill="white"/>
<path d="M101.863 9.96089V11.2209H101.073V12.0473H101.863V14.855C101.863 15.8138 102.296 16.1973 103.387 16.1973C103.579 16.1973 103.762 16.1744 103.922 16.147V15.3298C103.785 15.3435 103.698 15.3527 103.547 15.3527C103.059 15.3527 102.844 15.1244 102.844 14.6039V12.0473H103.922V11.2209H102.844V9.96089H101.863Z" fill="white"/>
<path d="M105.239 16.1699H106.221V13.2663C106.221 12.513 106.668 12.0062 107.472 12.0062C108.166 12.0062 108.535 12.408 108.535 13.2023V16.1699H109.517V12.9604C109.517 11.7779 108.864 11.1068 107.805 11.1068C107.056 11.1068 106.531 11.4401 106.289 11.9971H106.212V9.25781H105.239V16.1699Z" fill="white"/>
<path d="M113.058 11.9377C113.784 11.9377 114.259 12.4445 114.281 13.2252H111.77C111.825 12.449 112.332 11.9377 113.058 11.9377ZM114.277 14.8276C114.094 15.2157 113.688 15.4303 113.094 15.4303C112.309 15.4303 111.802 14.8779 111.77 14.0059V13.9511H115.281V13.6087C115.281 12.0473 114.446 11.1022 113.062 11.1022C111.661 11.1022 110.771 12.1112 110.771 13.7C110.771 15.2887 111.643 16.2657 113.067 16.2657C114.204 16.2657 114.998 15.7179 115.222 14.8276H114.277Z" fill="white"/>
<path d="M27.2458 22.3312C27.2696 20.4821 28.2627 18.7324 29.838 17.7639C28.8442 16.3446 27.1796 15.4446 25.4477 15.3905C23.6006 15.1966 21.8098 16.4958 20.8685 16.4958C19.909 16.4958 18.4598 15.4097 16.8992 15.4418C14.865 15.5075 12.9687 16.6641 11.979 18.4425C9.85158 22.1257 11.4384 27.5389 13.4763 30.5162C14.4959 31.974 15.6875 33.6025 17.2467 33.5448C18.7725 33.4815 19.3423 32.5719 21.184 32.5719C23.0087 32.5719 23.5433 33.5448 25.1341 33.5081C26.7714 33.4815 27.8029 32.0437 28.7867 30.572C29.5193 29.5332 30.083 28.3851 30.457 27.1703C28.5329 26.3565 27.248 24.4202 27.2458 22.3312Z" fill="white"/>
<path d="M24.241 13.4325C25.1336 12.3608 25.5734 10.9834 25.4669 9.59277C24.1031 9.73602 22.8433 10.3878 21.9386 11.4183C21.0539 12.4252 20.5935 13.7784 20.6805 15.1159C22.0448 15.1299 23.386 14.4958 24.241 13.4325Z" fill="white"/>
</svg>
