<svg width="61" height="60" viewBox="0 0 61 60" fill="none" xmlns="http://www.w3.org/2000/svg">
<rect x="0.667969" width="60" height="60" rx="30" fill="#D9ECFF"/>
<path d="M38.7664 39H22.5664C21.7708 39 21.0077 38.6839 20.4451 38.1213C19.8825 37.5587 19.5664 36.7956 19.5664 36V34.2321C19.5664 33.963 19.7803 33.7458 20.0457 33.7014C20.8348 33.5696 21.5655 33.1869 22.1254 32.6036C22.7972 31.9038 23.1706 30.9701 23.1664 30C23.1702 29.03 22.7967 28.0965 22.125 27.3968C21.5651 26.8136 20.8345 26.4308 20.0455 26.2987C19.7802 26.2543 19.5664 26.0371 19.5664 25.7681V24C19.5664 23.2044 19.8825 22.4413 20.4451 21.8787C21.0077 21.3161 21.7708 21 22.5664 21H38.7664C39.5621 21 40.3251 21.3161 40.8877 21.8787C41.4503 22.4413 41.7664 23.2044 41.7664 24V25.75C41.7664 26.0261 41.5415 26.2466 41.2679 26.2833C40.4573 26.392 39.6995 26.7637 39.1148 27.3483C38.4115 28.0516 38.0164 29.0054 38.0164 30C38.0164 30.9946 38.4115 31.9484 39.1148 32.6517C39.6995 33.2363 40.4573 33.608 41.2679 33.7167C41.5415 33.7534 41.7664 33.9739 41.7664 34.25V36C41.7664 36.7956 41.4503 37.5587 40.8877 38.1213C40.3251 38.6839 39.5621 39 38.7664 39Z" stroke="white" stroke-width="2"/>
<rect x="26.768" y="26.1" width="2.69189" height="2.69189" rx="1.34595" fill="white" stroke="white" stroke-width="1.2"/>
<path d="M32.0385 26.7732C32.4102 26.1296 33.2334 25.909 33.8772 26.2806C34.5209 26.6523 34.7415 27.4753 34.3698 28.1189L31.4205 33.2268C31.0488 33.8704 30.2257 34.091 29.5819 33.7194C28.9381 33.3477 28.7176 32.5247 29.0892 31.8811L32.0385 26.7732Z" fill="white" stroke="white" stroke-width="1.2"/>
</svg>
