<svg width="60" height="60" viewBox="0 0 60 60" fill="none" xmlns="http://www.w3.org/2000/svg">
<rect width="60" height="60" rx="30" fill="#D9ECFF"/>
<path d="M28.7516 34.8604V36.8904C28.7516 38.6104 27.1516 40.0004 25.1816 40.0004C23.2116 40.0004 21.6016 38.6104 21.6016 36.8904V34.8604C21.6016 36.5804 23.2016 37.8004 25.1816 37.8004C27.1516 37.8004 28.7516 36.5704 28.7516 34.8604Z" stroke="white" stroke-width="1.5" stroke-linecap="round" stroke-linejoin="round"/>
<path d="M28.7498 32.1097C28.7498 32.6097 28.6098 33.0697 28.3698 33.4697C27.7798 34.4397 26.5698 35.0497 25.1698 35.0497C23.7698 35.0497 22.5598 34.4297 21.9698 33.4697C21.7298 33.0697 21.5898 32.6097 21.5898 32.1097C21.5898 31.2497 21.9898 30.4797 22.6298 29.9197C23.2798 29.3497 24.1698 29.0098 25.1598 29.0098C26.1498 29.0098 27.0398 29.3597 27.6898 29.9197C28.3498 30.4697 28.7498 31.2497 28.7498 32.1097Z" stroke="white" stroke-width="1.5" stroke-linecap="round" stroke-linejoin="round"/>
<path d="M28.7516 32.11V34.86C28.7516 36.58 27.1516 37.8 25.1816 37.8C23.2116 37.8 21.6016 36.57 21.6016 34.86V32.11C21.6016 30.39 23.2016 29 25.1816 29C26.1716 29 27.0616 29.35 27.7116 29.91C28.3516 30.47 28.7516 31.25 28.7516 32.11Z" stroke="white" stroke-width="1.5" stroke-linecap="round" stroke-linejoin="round"/>
<path d="M40.0002 28.9702V31.0302C40.0002 31.5802 39.5602 32.0302 39.0002 32.0502H37.0402C35.9602 32.0502 34.9702 31.2602 34.8802 30.1802C34.8202 29.5502 35.0602 28.9602 35.4802 28.5502C35.8502 28.1702 36.3602 27.9502 36.9202 27.9502H39.0002C39.5602 27.9702 40.0002 28.4202 40.0002 28.9702Z" stroke="white" stroke-width="1.5" stroke-linecap="round" stroke-linejoin="round"/>
<path d="M20 28.5V26.5C20 23.78 21.64 21.88 24.19 21.56C24.45 21.52 24.72 21.5 25 21.5H34C34.26 21.5 34.51 21.51 34.75 21.55C37.33 21.85 39 23.76 39 26.5V27.95H36.92C36.36 27.95 35.85 28.17 35.48 28.55C35.06 28.96 34.82 29.55 34.88 30.18C34.97 31.26 35.96 32.05 37.04 32.05H39V33.5C39 36.5 37 38.5 34 38.5H31.5" stroke="white" stroke-width="1.5" stroke-linecap="round" stroke-linejoin="round"/>
</svg>
