<svg width="60" height="60" viewBox="0 0 60 60" fill="none" xmlns="http://www.w3.org/2000/svg">
<rect width="60" height="60" rx="30" fill="#EF5931"/>
<path d="M27.5039 31.7493C27.5039 32.7193 28.2539 33.4993 29.1739 33.4993H31.0539C31.8539 33.4993 32.5039 32.8193 32.5039 31.9693C32.5039 31.0593 32.1039 30.7293 31.5139 30.5193L28.5039 29.4693C27.9139 29.2593 27.5139 28.9393 27.5139 28.0193C27.5139 27.1793 28.1639 26.4893 28.9639 26.4893H30.8439C31.7639 26.4893 32.5139 27.2693 32.5139 28.2393" stroke="white" stroke-width="1.5" stroke-linecap="round" stroke-linejoin="round"/>
<path d="M30.0039 25.5V34.5" stroke="white" stroke-width="1.5" stroke-linecap="round" stroke-linejoin="round"/>
<path d="M39.9961 30C39.9961 35.52 35.5161 40 29.9961 40C24.4761 40 19.9961 35.52 19.9961 30C19.9961 24.48 24.4761 20 29.9961 20" stroke="white" stroke-width="1.5" stroke-linecap="round" stroke-linejoin="round"/>
<path d="M40 24V20H36" stroke="white" stroke-width="1.5" stroke-linecap="round" stroke-linejoin="round"/>
<path d="M35 25L40 20" stroke="white" stroke-width="1.5" stroke-linecap="round" stroke-linejoin="round"/>
</svg>
