<svg width="136" height="40" viewBox="0 0 136 40" fill="none" xmlns="http://www.w3.org/2000/svg">
<rect x="1" y="0.5" width="134" height="39" rx="4.5" stroke="white"/>
<path d="M68.637 21.7509C66.285 21.7509 64.368 23.5399 64.368 26.0039C64.368 28.4529 66.285 30.2569 68.637 30.2569C70.99 30.2569 72.907 28.4529 72.907 26.0039C72.906 23.5399 70.989 21.7509 68.637 21.7509ZM68.637 28.5829C67.348 28.5829 66.237 27.5199 66.237 26.0049C66.237 24.4739 67.349 23.4269 68.637 23.4269C69.926 23.4269 71.037 24.4739 71.037 26.0049C71.037 27.5189 69.926 28.5829 68.637 28.5829ZM59.323 21.7509C56.971 21.7509 55.054 23.5399 55.054 26.0039C55.054 28.4529 56.971 30.2569 59.323 30.2569C61.676 30.2569 63.593 28.4529 63.593 26.0039C63.593 23.5399 61.676 21.7509 59.323 21.7509ZM59.323 28.5829C58.034 28.5829 56.923 27.5199 56.923 26.0049C56.923 24.4739 58.035 23.4269 59.323 23.4269C60.612 23.4269 61.723 24.4739 61.723 26.0049C61.724 27.5189 60.612 28.5829 59.323 28.5829ZM48.245 23.0569V24.8609H52.563C52.434 25.8759 52.096 26.6169 51.58 27.1319C50.952 27.7599 49.969 28.4529 48.245 28.4529C45.587 28.4529 43.509 26.3099 43.509 23.6519C43.509 20.9939 45.587 18.8509 48.245 18.8509C49.679 18.8509 50.726 19.4149 51.499 20.1399L52.772 18.8669C51.692 17.8359 50.259 17.0469 48.245 17.0469C44.604 17.0469 41.543 20.0109 41.543 23.6519C41.543 27.2929 44.604 30.2569 48.245 30.2569C50.21 30.2569 51.693 29.6119 52.852 28.4039C54.044 27.2119 54.415 25.5359 54.415 24.1829C54.415 23.7649 54.383 23.3779 54.318 23.0559H48.245V23.0569ZM93.553 24.4579C93.199 23.5079 92.119 21.7509 89.912 21.7509C87.721 21.7509 85.9 23.4749 85.9 26.0039C85.9 28.3879 87.705 30.2569 90.121 30.2569C92.07 30.2569 93.198 29.0649 93.666 28.3719L92.216 27.4049C91.733 28.1139 91.072 28.5809 90.121 28.5809C89.171 28.5809 88.494 28.1459 88.059 27.2919L93.746 24.9399L93.553 24.4579ZM87.753 25.8759C87.705 24.2319 89.026 23.3949 89.977 23.3949C90.718 23.3949 91.346 23.7659 91.556 24.2969L87.753 25.8759ZM83.13 29.9999H84.998V17.4989H83.13V29.9999ZM80.068 22.7019H80.004C79.585 22.2019 78.779 21.7509 77.765 21.7509C75.638 21.7509 73.689 23.6199 73.689 26.0209C73.689 28.4049 75.638 30.2579 77.765 30.2579C78.78 30.2579 79.585 29.8069 80.004 29.2919H80.068V29.9039C80.068 31.5309 79.198 32.4009 77.797 32.4009C76.653 32.4009 75.944 31.5799 75.654 30.8869L74.027 31.5639C74.494 32.6909 75.734 34.0769 77.797 34.0769C79.988 34.0769 81.841 32.7879 81.841 29.6459V22.0099H80.069V22.7019H80.068ZM77.926 28.5829C76.637 28.5829 75.558 27.5029 75.558 26.0209C75.558 24.5219 76.637 23.4269 77.926 23.4269C79.198 23.4269 80.197 24.5219 80.197 26.0209C80.197 27.5029 79.198 28.5829 77.926 28.5829ZM102.307 17.4989H97.836V29.9999H99.701V25.2639H102.306C104.374 25.2639 106.408 23.7669 106.408 21.3819C106.408 18.9969 104.375 17.4989 102.307 17.4989ZM102.355 23.5239H99.701V19.2389H102.355C103.75 19.2389 104.542 20.3939 104.542 21.3819C104.542 22.3499 103.75 23.5239 102.355 23.5239ZM113.887 21.7289C112.536 21.7289 111.137 22.3239 110.558 23.6429L112.214 24.3339C112.568 23.6429 113.228 23.4169 113.919 23.4169C114.884 23.4169 115.865 23.9959 115.881 25.0249V25.1539C115.543 24.9609 114.819 24.6719 113.935 24.6719C112.15 24.6719 110.332 25.6529 110.332 27.4859C110.332 29.1589 111.796 30.2359 113.436 30.2359C114.69 30.2359 115.382 29.6729 115.816 29.0129H115.88V29.9779H117.682V25.1849C117.683 22.9669 116.025 21.7289 113.887 21.7289ZM113.661 28.5799C113.051 28.5799 112.198 28.2739 112.198 27.5179C112.198 26.5529 113.26 26.1829 114.177 26.1829C114.996 26.1829 115.383 26.3599 115.881 26.6009C115.736 27.7599 114.739 28.5799 113.661 28.5799ZM124.244 22.0019L122.105 27.4219H122.041L119.821 22.0019H117.811L121.14 29.5769L119.242 33.7909H121.188L126.319 22.0019H124.244ZM107.438 29.9999H109.303V17.4989H107.438V29.9999Z" fill="white"/>
<path d="M47.9176 10.2432C47.9176 11.0812 47.6696 11.7482 47.1726 12.2462C46.6086 12.8382 45.8726 13.1342 44.9686 13.1342C44.1026 13.1342 43.3656 12.8342 42.7606 12.2342C42.1546 11.6332 41.8516 10.8892 41.8516 10.0012C41.8516 9.11219 42.1546 8.36819 42.7606 7.76819C43.3656 7.16719 44.1026 6.86719 44.9686 6.86719C45.3986 6.86719 45.8096 6.95119 46.1996 7.11819C46.5906 7.28619 46.9036 7.50919 47.1376 7.78819L46.6106 8.31619C46.2136 7.84119 45.6666 7.60419 44.9676 7.60419C44.3356 7.60419 43.7896 7.82619 43.3286 8.27019C42.8676 8.71419 42.6376 9.29119 42.6376 10.0002C42.6376 10.7092 42.8676 11.2862 43.3286 11.7302C43.7896 12.1742 44.3356 12.3962 44.9676 12.3962C45.6376 12.3962 46.1966 12.1732 46.6436 11.7262C46.9336 11.4352 47.1016 11.0302 47.1466 10.5112H44.9676V9.79019H47.8746C47.9046 9.94719 47.9176 10.0982 47.9176 10.2432Z" fill="white"/>
<path d="M52.5277 7.73724H49.7957V9.63924H52.2597V10.3602H49.7957V12.2622H52.5277V13.0002H49.0247V7.00024H52.5277V7.73724Z" fill="white"/>
<path d="M55.7785 13.0002H55.0075V7.73724H53.3315V7.00024H57.4545V7.73724H55.7785V13.0002Z" fill="white"/>
<path d="M60.4375 13.0002V7.00024H61.2085V13.0002H60.4375Z" fill="white"/>
<path d="M64.6277 13.0002H63.8567V7.73724H62.1807V7.00024H66.3037V7.73724H64.6277V13.0002Z" fill="white"/>
<path d="M74.1084 12.2252C73.5184 12.8312 72.7854 13.1342 71.9084 13.1342C71.0314 13.1342 70.2984 12.8312 69.7094 12.2252C69.1194 11.6192 68.8254 10.8772 68.8254 10.0002C68.8254 9.12323 69.1194 8.38123 69.7094 7.77523C70.2984 7.16923 71.0314 6.86523 71.9084 6.86523C72.7804 6.86523 73.5124 7.17023 74.1044 7.77923C74.6964 8.38823 74.9924 9.12823 74.9924 10.0002C74.9924 10.8772 74.6974 11.6192 74.1084 12.2252ZM70.2784 11.7222C70.7224 12.1722 71.2654 12.3962 71.9084 12.3962C72.5514 12.3962 73.0954 12.1712 73.5384 11.7222C73.9824 11.2722 74.2054 10.6982 74.2054 10.0002C74.2054 9.30223 73.9824 8.72823 73.5384 8.27823C73.0954 7.82823 72.5514 7.60423 71.9084 7.60423C71.2654 7.60423 70.7224 7.82923 70.2784 8.27823C69.8354 8.72823 69.6124 9.30223 69.6124 10.0002C69.6124 10.6982 69.8354 11.2722 70.2784 11.7222Z" fill="white"/>
<path d="M76.0745 13.0002V7.00024H77.0125L79.9285 11.6672H79.9615L79.9285 10.5112V7.00024H80.6995V13.0002H79.8945L76.8435 8.10625H76.8105L76.8435 9.26224V13.0002H76.0745Z" fill="white"/>
<path d="M47.9176 10.2432C47.9176 11.0812 47.6696 11.7482 47.1726 12.2462C46.6086 12.8382 45.8726 13.1342 44.9686 13.1342C44.1026 13.1342 43.3656 12.8342 42.7606 12.2342C42.1546 11.6332 41.8516 10.8892 41.8516 10.0012C41.8516 9.11219 42.1546 8.36819 42.7606 7.76819C43.3656 7.16719 44.1026 6.86719 44.9686 6.86719C45.3986 6.86719 45.8096 6.95119 46.1996 7.11819C46.5906 7.28619 46.9036 7.50919 47.1376 7.78819L46.6106 8.31619C46.2136 7.84119 45.6666 7.60419 44.9676 7.60419C44.3356 7.60419 43.7896 7.82619 43.3286 8.27019C42.8676 8.71419 42.6376 9.29119 42.6376 10.0002C42.6376 10.7092 42.8676 11.2862 43.3286 11.7302C43.7896 12.1742 44.3356 12.3962 44.9676 12.3962C45.6376 12.3962 46.1966 12.1732 46.6436 11.7262C46.9336 11.4352 47.1016 11.0302 47.1466 10.5112H44.9676V9.79019H47.8746C47.9046 9.94719 47.9176 10.0982 47.9176 10.2432Z" stroke="white" stroke-width="0.2" stroke-miterlimit="10"/>
<path d="M52.5277 7.73724H49.7957V9.63924H52.2597V10.3602H49.7957V12.2622H52.5277V13.0002H49.0247V7.00024H52.5277V7.73724Z" stroke="white" stroke-width="0.2" stroke-miterlimit="10"/>
<path d="M55.7785 13.0002H55.0075V7.73724H53.3315V7.00024H57.4545V7.73724H55.7785V13.0002Z" stroke="white" stroke-width="0.2" stroke-miterlimit="10"/>
<path d="M60.4375 13.0002V7.00024H61.2085V13.0002H60.4375Z" stroke="white" stroke-width="0.2" stroke-miterlimit="10"/>
<path d="M64.6277 13.0002H63.8567V7.73724H62.1807V7.00024H66.3037V7.73724H64.6277V13.0002Z" stroke="white" stroke-width="0.2" stroke-miterlimit="10"/>
<path d="M74.1084 12.2252C73.5184 12.8312 72.7854 13.1342 71.9084 13.1342C71.0314 13.1342 70.2984 12.8312 69.7094 12.2252C69.1194 11.6192 68.8254 10.8772 68.8254 10.0002C68.8254 9.12323 69.1194 8.38123 69.7094 7.77523C70.2984 7.16923 71.0314 6.86523 71.9084 6.86523C72.7804 6.86523 73.5124 7.17023 74.1044 7.77923C74.6964 8.38823 74.9924 9.12823 74.9924 10.0002C74.9924 10.8772 74.6974 11.6192 74.1084 12.2252ZM70.2784 11.7222C70.7224 12.1722 71.2654 12.3962 71.9084 12.3962C72.5514 12.3962 73.0954 12.1712 73.5384 11.7222C73.9824 11.2722 74.2054 10.6982 74.2054 10.0002C74.2054 9.30223 73.9824 8.72823 73.5384 8.27823C73.0954 7.82823 72.5514 7.60423 71.9084 7.60423C71.2654 7.60423 70.7224 7.82923 70.2784 8.27823C69.8354 8.72823 69.6124 9.30223 69.6124 10.0002C69.6124 10.6982 69.8354 11.2722 70.2784 11.7222Z" stroke="white" stroke-width="0.2" stroke-miterlimit="10"/>
<path d="M76.0745 13.0002V7.00024H77.0125L79.9285 11.6672H79.9615L79.9285 10.5112V7.00024H80.6995V13.0002H79.8945L76.8435 8.10625H76.8105L76.8435 9.26224V13.0002H76.0745Z" stroke="white" stroke-width="0.2" stroke-miterlimit="10"/>
<path fill-rule="evenodd" clip-rule="evenodd" d="M10.656 7.96617C10.5379 8.23367 10.4727 8.56144 10.4727 8.94269V31.0587C10.4727 31.4408 10.538 31.7686 10.6562 32.036L22.6902 20.0003L10.656 7.96617ZM11.3512 32.7552C11.7973 32.9461 12.3792 32.8855 13.0137 32.5257L27.1708 24.4809L23.3973 20.7074L11.3512 32.7552ZM28.0732 23.9691L32.5147 21.4457C33.9116 20.6507 33.9116 19.3517 32.5147 18.5577L28.0712 16.0328L24.1043 20.0003L28.0732 23.9691ZM27.1694 15.5204L13.0137 7.4767C12.3791 7.11612 11.7972 7.05596 11.3512 7.2471L23.3972 19.2932L27.1694 15.5204Z" fill="white"/>
</svg>
