<svg xmlns="http://www.w3.org/2000/svg" width="24" height="24" viewBox="0 0 24 24" fill="none">
  <path d="M6.50056 16.3301C6.18416 16.6465 5.83015 17.2115 6.16916 17.543C6.50063 17.8745 7.06565 17.867 7.38205 17.5505L11.9925 12.4999L17.0006 17.4999C17.3245 17.8238 17.492 17.8745 17.8235 17.543C18.1474 17.204 18.1549 16.6541 17.8235 16.3301L12.7743 11.7121L17.5006 6.99988C17.832 6.67594 18.1549 6.22019 17.8235 5.88871C17.4845 5.56478 16.9345 5.55724 16.6106 5.88118L11.9925 10.9999L7.38205 5.88118C7.06565 5.56478 6.4931 5.54971 6.16916 5.88871C5.83769 6.22019 6.18359 6.68347 6.5 6.99988L10.9997 11.7121L6.50056 16.3301Z" fill="#051226"/>
</svg>